<svg width="65" height="51" viewBox="0 0 65 51" fill="none" xmlns="http://www.w3.org/2000/svg">
<path d="M6.62124 46.6677H2.53441V50.8556H0V40.3425H7.03281V42.2993H2.53441V44.7181H6.62124V46.6677Z" fill="white"/>
<path d="M11.379 50.8556H8.85181V40.3425H11.379V50.8556Z" fill="white"/>
<path d="M22.5125 50.8556H19.9925L16.2667 44.3138V50.8556H13.7323V40.3425H16.2667L19.9853 46.8843V40.3425H22.5125V50.8556Z" fill="white"/>
<path d="M30.8083 48.8916H27.3352L26.7287 50.8556H24.021L27.8768 40.3425H30.2596L34.1442 50.8556H31.4221L30.8083 48.8916ZM27.9418 46.9348H30.2018L29.0682 43.2885L27.9418 46.9348Z" fill="white"/>
<path d="M44.2885 50.8556H41.7685L38.0427 44.3138V50.8556H35.5083V40.3425H38.0427L41.7613 46.8843V40.3425H44.2885V50.8556Z" fill="white"/>
<path d="M54.9888 47.2959C54.9551 48.0276 54.7577 48.675 54.3967 49.2382C54.0357 49.7966 53.5278 50.2298 52.8732 50.5379C52.2233 50.846 51.4796 51 50.642 51C49.2605 51 48.1726 50.5499 47.3783 49.6498C46.5841 48.7496 46.1869 47.4788 46.1869 45.8373V45.3174C46.1869 44.2873 46.365 43.3872 46.7213 42.617C47.0823 41.842 47.5998 41.2451 48.2737 40.8263C48.9476 40.4027 49.7274 40.1909 50.6131 40.1909C51.8888 40.1909 52.9141 40.5278 53.6891 41.2017C54.4641 41.8708 54.9045 42.7951 55.0104 43.9744H52.4832C52.464 43.3342 52.3027 42.8745 51.9995 42.5953C51.6962 42.3161 51.2341 42.1765 50.6131 42.1765C49.9825 42.1765 49.5204 42.4124 49.2268 42.8841C48.9331 43.3559 48.7791 44.1092 48.7647 45.1442V45.8879C48.7647 47.0095 48.9043 47.8109 49.1835 48.2923C49.4675 48.7737 49.9537 49.0144 50.642 49.0144C51.2245 49.0144 51.6697 48.8772 51.9778 48.6028C52.2859 48.3284 52.4496 47.8928 52.4688 47.2959H54.9888Z" fill="white"/>
<path d="M63.299 46.4005H59.3133V48.9061H64.0211V50.8556H56.7789V40.3425H64.0355V42.2993H59.3133V44.516H63.299V46.4005Z" fill="white"/>
<path d="M43.6352 4.46667H33.1207L32.9046 11.1643C33.3847 10.9962 33.9128 10.8762 34.489 10.8042C35.0891 10.7322 35.6533 10.6962 36.1814 10.6962C37.4057 10.6962 38.534 10.8882 39.5662 11.2723C40.6225 11.6324 41.5227 12.1605 42.2668 12.8567C43.035 13.5528 43.6352 14.405 44.0673 15.4133C44.4994 16.3975 44.7154 17.5018 44.7154 18.7261C44.7154 20.0704 44.4874 21.2827 44.0313 22.3629C43.5752 23.4432 42.951 24.3674 42.1588 25.1356C41.3666 25.8798 40.4304 26.4559 39.3502 26.864C38.2699 27.2961 37.0936 27.5122 35.8213 27.5122C33.8288 27.5122 32.1484 27.0561 30.7801 26.1438C29.4118 25.2076 28.3795 23.9593 27.6833 22.399L30.8521 21.1386C31.2602 22.1709 31.8964 22.9991 32.7606 23.6232C33.6488 24.2474 34.669 24.5595 35.8213 24.5595C36.5655 24.5595 37.2617 24.4274 37.9098 24.1634C38.558 23.8993 39.1221 23.5272 39.6022 23.0471C40.0823 22.567 40.4544 21.9909 40.7185 21.3187C41.0065 20.6465 41.1506 19.9024 41.1506 19.0862C41.1506 18.1259 40.9825 17.2977 40.6465 16.6016C40.3344 15.8814 39.9023 15.2933 39.3502 14.8371C38.798 14.381 38.1619 14.045 37.4417 13.8289C36.7215 13.6129 35.9653 13.5048 35.1732 13.5048C34.2129 13.5048 33.2287 13.6369 32.2204 13.9009C31.2122 14.165 30.312 14.5011 29.5198 14.9092L29.8799 1.36993H43.6352V4.46667Z" fill="white"/>
<path d="M59.7543 13.4328C60.4264 13.6008 61.0506 13.8889 61.6267 14.297C62.2269 14.6811 62.743 15.1492 63.1751 15.7013C63.6072 16.2535 63.9433 16.8896 64.1833 17.6098C64.4474 18.33 64.5794 19.0982 64.5794 19.9144C64.5794 21.1146 64.3514 22.1829 63.8953 23.1191C63.4391 24.0553 62.815 24.8475 62.0228 25.4957C61.2546 26.1438 60.3544 26.636 59.3222 26.972C58.2899 27.3321 57.1977 27.5122 56.0454 27.5122C54.8931 27.5122 53.7888 27.3321 52.7326 26.972C51.7003 26.636 50.7881 26.1438 49.9959 25.4957C49.2278 24.8475 48.6156 24.0553 48.1595 23.1191C47.7034 22.1829 47.4753 21.1146 47.4753 19.9144C47.4753 19.0742 47.5954 18.294 47.8354 17.5738C48.0995 16.8536 48.4476 16.2175 48.8797 15.6653C49.3358 15.1132 49.8519 14.6571 50.428 14.297C51.0282 13.9129 51.6523 13.6248 52.3005 13.4328V13.3608C51.1482 12.9527 50.2 12.2565 49.4558 11.2723C48.7356 10.2881 48.3756 9.08777 48.3756 7.67143C48.3756 6.61518 48.5796 5.66695 48.9877 4.82675C49.3958 3.96254 49.9479 3.23037 50.6441 2.63023C51.3403 2.00608 52.1445 1.53797 53.0567 1.22589C53.9929 0.889811 54.9891 0.721771 56.0454 0.721771C57.0776 0.721771 58.0619 0.889811 58.9981 1.22589C59.9343 1.53797 60.7385 1.99407 61.4107 2.59422C62.1068 3.17036 62.659 3.89053 63.0671 4.75473C63.4752 5.59493 63.6792 6.54316 63.6792 7.59941C63.6792 8.99174 63.3071 10.204 62.5629 11.2363C61.8428 12.2685 60.9065 12.9767 59.7543 13.3608V13.4328ZM51.8684 7.77946C51.8684 8.35559 51.9644 8.89572 52.1565 9.39984C52.3725 9.90396 52.6606 10.3481 53.0207 10.7322C53.4048 11.0922 53.8489 11.3803 54.353 11.5964C54.8811 11.8124 55.4452 11.9204 56.0454 11.9204C56.6215 11.9204 57.1616 11.8124 57.6658 11.5964C58.1699 11.3803 58.614 11.0922 58.9981 10.7322C59.3822 10.3481 59.6823 9.90396 59.8983 9.39984C60.1144 8.89572 60.2224 8.35559 60.2224 7.77946C60.2224 7.17931 60.1024 6.62718 59.8623 6.12306C59.6462 5.59493 59.3462 5.15083 58.9621 4.79074C58.602 4.40665 58.1699 4.11858 57.6658 3.92654C57.1616 3.71048 56.6215 3.60246 56.0454 3.60246C55.4452 3.60246 54.8811 3.71048 54.353 3.92654C53.8489 4.11858 53.4048 4.40665 53.0207 4.79074C52.6606 5.15083 52.3725 5.59493 52.1565 6.12306C51.9644 6.62718 51.8684 7.17931 51.8684 7.77946V7.77946ZM51.0402 19.7343C51.0402 20.4545 51.1602 21.1146 51.4003 21.7148C51.6403 22.3149 51.9764 22.831 52.4085 23.2632C52.8646 23.6713 53.3928 23.9953 53.9929 24.2354C54.617 24.4754 55.3012 24.5955 56.0454 24.5955C56.7656 24.5955 57.4257 24.4754 58.0259 24.2354C58.65 23.9953 59.1781 23.6713 59.6102 23.2632C60.0423 22.831 60.3784 22.3149 60.6185 21.7148C60.8825 21.1146 61.0146 20.4545 61.0146 19.7343C61.0146 19.0381 60.8825 18.402 60.6185 17.8259C60.3784 17.2257 60.0423 16.7096 59.6102 16.2775C59.1781 15.8454 58.65 15.5093 58.0259 15.2692C57.4257 15.0292 56.7656 14.9092 56.0454 14.9092C55.3252 14.9092 54.6531 15.0292 54.0289 15.2692C53.4288 15.5093 52.9006 15.8454 52.4445 16.2775C52.0124 16.7096 51.6643 17.2257 51.4003 17.8259C51.1602 18.402 51.0402 19.0381 51.0402 19.7343V19.7343Z" fill="white"/>
<path d="M0 0.722198H12.141C13.4679 0.722198 14.7948 0.871473 16.1216 1.17002C17.4485 1.46857 18.6261 1.96615 19.6545 2.66277C20.716 3.35938 21.5619 4.27162 22.1921 5.39947C22.8556 6.52732 23.1873 7.93713 23.1873 9.62891C23.1873 11.5861 22.6234 13.2281 21.4955 14.555C20.3677 15.8819 18.8749 16.7941 17.0173 17.2917V17.3912C18.1451 17.5239 19.1901 17.8224 20.1521 18.2868C21.1141 18.7181 21.9434 19.2986 22.64 20.0284C23.3366 20.7582 23.8673 21.6206 24.2322 22.6158C24.6303 23.611 24.8293 24.7222 24.8293 25.9496C24.8293 27.6414 24.481 29.1175 23.7844 30.3781C23.0878 31.6386 22.1424 32.6835 20.9482 33.5128C19.754 34.309 18.3442 34.9226 16.7187 35.3539C15.1265 35.752 13.4181 35.951 11.5937 35.951H0V0.722198ZM4.92606 15.5999H11.3449C12.2737 15.5999 13.1527 15.5004 13.982 15.3013C14.8445 15.0691 15.5909 14.7374 16.2212 14.3062C16.8514 13.8418 17.349 13.2778 17.7139 12.6144C18.0788 11.9178 18.2612 11.0885 18.2612 10.1265C18.2612 8.23568 17.5646 6.89221 16.1714 6.09608C14.7782 5.26678 12.904 4.85213 10.5487 4.85213H4.92606V15.5999ZM4.92606 31.7713H11.0961C12.1244 31.7713 13.1527 31.6884 14.1811 31.5225C15.2426 31.3235 16.188 30.9917 17.0173 30.5273C17.8798 30.0629 18.5598 29.4492 19.0574 28.6863C19.5881 27.8902 19.8535 26.895 19.8535 25.7008C19.8535 23.611 19.1403 22.1016 17.7139 21.1728C16.2875 20.244 14.2308 19.7796 11.5439 19.7796H4.92606V31.7713Z" fill="white"/>
<path d="M64.286 31.6503H28.0588V36.5113H64.286V31.6503Z" fill="white"/>
</svg>
